<svg width="34" height="34" viewBox="0 0 34 34" fill="none" xmlns="http://www.w3.org/2000/svg">
<path d="M16.9987 0.333252C7.81536 0.333252 0.332031 7.81658 0.332031 16.9999C0.332031 26.1833 7.81536 33.6666 16.9987 33.6666C26.182 33.6666 33.6654 26.1833 33.6654 16.9999C33.6654 7.81658 26.182 0.333252 16.9987 0.333252ZM24.9654 13.1666L15.5154 22.6166C15.282 22.8499 14.9654 22.9833 14.632 22.9833C14.2987 22.9833 13.982 22.8499 13.7487 22.6166L9.03203 17.8999C8.5487 17.4166 8.5487 16.6166 9.03203 16.1333C9.51536 15.6499 10.3154 15.6499 10.7987 16.1333L14.632 19.9666L23.1987 11.3999C23.682 10.9166 24.482 10.9166 24.9654 11.3999C25.4487 11.8833 25.4487 12.6666 24.9654 13.1666Z" fill="#B71E79"/>
</svg>
