<svg width="40" height="40" viewBox="0 0 40 40" fill="none" xmlns="http://www.w3.org/2000/svg">
<path d="M19.9993 29.9999C26.666 29.9999 28.3327 23.3333 28.3327 23.3333H11.666C11.666 23.3333 13.3327 29.9999 19.9993 29.9999Z" fill="#B71E79"/>
<path d="M20.0007 36.6666C29.1907 36.6666 36.6673 29.1899 36.6673 19.9999C36.6673 10.8099 29.1907 3.33325 20.0007 3.33325C10.8107 3.33325 3.33398 10.8099 3.33398 19.9999C3.33398 29.1899 10.8107 36.6666 20.0007 36.6666ZM20.0007 6.66659C27.3523 6.66659 33.334 12.6483 33.334 19.9999C33.334 27.3516 27.3523 33.3333 20.0007 33.3333C12.649 33.3333 6.66732 27.3516 6.66732 19.9999C6.66732 12.6483 12.649 6.66659 20.0007 6.66659Z" fill="#B71E79"/>
<path d="M14.2243 21.0566L17.6409 17.5849C17.8733 17.3526 18.0571 17.0763 18.1816 16.7722C18.306 16.4681 18.3687 16.1422 18.3659 15.8137C18.3631 15.4851 18.2949 15.1603 18.1653 14.8584C18.0357 14.5564 17.8472 14.2833 17.6109 14.0549C17.1557 13.6027 16.5431 13.3442 15.9015 13.3336C15.2599 13.323 14.6391 13.5612 14.1693 13.9983C13.6924 13.5668 13.0666 13.3375 12.4238 13.3586C11.7811 13.3798 11.1717 13.6498 10.7243 14.1116C9.74759 15.1116 9.75926 16.6616 10.7559 17.6399L14.2243 21.0566ZM25.8909 21.0566L29.3076 17.5849C29.54 17.3526 29.7238 17.0763 29.8482 16.7722C29.9727 16.4681 30.0354 16.1422 30.0326 15.8137C30.0298 15.4851 29.9616 15.1603 29.832 14.8584C29.7023 14.5564 29.5139 14.2833 29.2776 14.0549C28.8224 13.6027 28.2098 13.3442 27.5682 13.3336C26.9266 13.323 26.3058 13.5612 25.8359 13.9983C25.3592 13.5661 24.7331 13.3362 24.09 13.357C23.4469 13.3778 22.837 13.6478 22.3893 14.1099C21.4126 15.1099 21.4243 16.6599 22.4209 17.6383L25.8909 21.0566Z" fill="#B71E79"/>
</svg>
