<svg width="41" height="40" viewBox="0 0 41 40" fill="none" xmlns="http://www.w3.org/2000/svg">
<path d="M26.7507 24.1666C26.4191 24.1666 26.1012 24.2983 25.8668 24.5327C25.6323 24.7671 25.5007 25.0851 25.5007 25.4166C25.5007 25.7481 25.6323 26.066 25.8668 26.3005C26.1012 26.5349 26.4191 26.6666 26.7507 26.6666H30.9173C31.2488 26.6666 31.5668 26.5349 31.8012 26.3005C32.0356 26.066 32.1673 25.7481 32.1673 25.4166C32.1673 25.0851 32.0356 24.7671 31.8012 24.5327C31.5668 24.2983 31.2488 24.1666 30.9173 24.1666H26.7507ZM3.83398 13.7499C3.83398 12.3133 4.40467 10.9356 5.42049 9.91976C6.43631 8.90393 7.81406 8.33325 9.25065 8.33325H31.7507C32.462 8.33325 33.1663 8.47336 33.8235 8.74557C34.4807 9.01778 35.0778 9.41677 35.5808 9.91976C36.0838 10.4227 36.4828 11.0199 36.755 11.6771C37.0272 12.3342 37.1673 13.0386 37.1673 13.7499V26.2499C37.1673 26.9612 37.0272 27.6656 36.755 28.3228C36.4828 28.98 36.0838 29.5771 35.5808 30.0801C35.0778 30.5831 34.4807 30.9821 33.8235 31.2543C33.1663 31.5265 32.462 31.6666 31.7507 31.6666H9.25065C7.81406 31.6666 6.43631 31.0959 5.42049 30.0801C4.40467 29.0643 3.83398 27.6865 3.83398 26.2499V13.7499ZM34.6673 15.8333V13.7499C34.6673 12.9764 34.36 12.2345 33.813 11.6875C33.2661 11.1405 32.5242 10.8333 31.7507 10.8333H9.25065C8.4771 10.8333 7.73524 11.1405 7.18826 11.6875C6.64128 12.2345 6.33398 12.9764 6.33398 13.7499V15.8333H34.6673ZM6.33398 18.3333V26.2499C6.33398 27.8599 7.64065 29.1666 9.25065 29.1666H31.7507C32.5242 29.1666 33.2661 28.8593 33.813 28.3123C34.36 27.7653 34.6673 27.0235 34.6673 26.2499V18.3333H6.33398Z" fill="#F5B216"/>
</svg>
