<svg width="36" height="36" viewBox="0 0 36 36" fill="none" xmlns="http://www.w3.org/2000/svg">
<path d="M15.6004 14.3999C15.2822 14.3999 14.9769 14.5263 14.7519 14.7514C14.5268 14.9764 14.4004 15.2817 14.4004 15.5999C14.4004 15.9182 14.5268 16.2234 14.7519 16.4485C14.9769 16.6735 15.2822 16.8 15.6004 16.8H25.2007C25.519 16.8 25.8242 16.6735 26.0493 16.4485C26.2743 16.2234 26.4008 15.9182 26.4008 15.5999C26.4008 15.2817 26.2743 14.9764 26.0493 14.7514C25.8242 14.5263 25.519 14.3999 25.2007 14.3999H15.6004Z" fill="#F5B216"/>
<path d="M1.20004 -0.000488281C0.881767 -0.000488281 0.576533 0.125944 0.351483 0.350994C0.126432 0.576045 0 0.881279 0 1.19955C0 1.51782 0.126432 1.82305 0.351483 2.0481C0.576533 2.27315 0.881767 2.39959 1.20004 2.39959H3.86412L4.82655 6.25651L8.42186 25.4211C8.47334 25.6961 8.61928 25.9445 8.83446 26.1233C9.04964 26.3021 9.32053 26.4001 9.6003 26.4003H12.0004C10.7273 26.4003 9.50636 26.9061 8.60615 27.8063C7.70595 28.7065 7.20022 29.9274 7.20022 31.2005C7.20022 32.4736 7.70595 33.6945 8.60615 34.5947C9.50636 35.4949 10.7273 36.0006 12.0004 36.0006C13.2734 36.0006 14.4944 35.4949 15.3946 34.5947C16.2948 33.6945 16.8005 32.4736 16.8005 31.2005C16.8005 29.9274 16.2948 28.7065 15.3946 27.8063C14.4944 26.9061 13.2734 26.4003 12.0004 26.4003H28.8009C27.5278 26.4003 26.3069 26.9061 25.4067 27.8063C24.5065 28.7065 24.0007 29.9274 24.0007 31.2005C24.0007 32.4736 24.5065 33.6945 25.4067 34.5947C26.3069 35.4949 27.5278 36.0006 28.8009 36.0006C30.074 36.0006 31.2949 35.4949 32.1951 34.5947C33.0953 33.6945 33.601 32.4736 33.601 31.2005C33.601 29.9274 33.0953 28.7065 32.1951 27.8063C31.2949 26.9061 30.074 26.4003 28.8009 26.4003H31.201C31.4807 26.4001 31.7516 26.3021 31.9668 26.1233C32.182 25.9445 32.3279 25.6961 32.3794 25.4211L35.9795 6.2205C36.0119 6.04731 36.0058 5.8691 35.9616 5.69853C35.9174 5.52796 35.8361 5.36923 35.7236 5.2336C35.6112 5.09798 35.4702 4.98878 35.3107 4.91379C35.1513 4.83879 34.9773 4.79982 34.8011 4.79966H6.93621L5.96418 0.90914C5.8994 0.649413 5.74965 0.418802 5.53873 0.253979C5.32781 0.0891561 5.06783 -0.000414331 4.80015 -0.000488281H1.20004ZM10.5963 24.0003L7.44503 7.19973H33.3562L30.2049 24.0003H10.5963V24.0003ZM14.4004 31.2005C14.4004 31.837 14.1476 32.4475 13.6975 32.8976C13.2474 33.3477 12.6369 33.6006 12.0004 33.6006C11.3638 33.6006 10.7534 33.3477 10.3033 32.8976C9.85316 32.4475 9.6003 31.837 9.6003 31.2005C9.6003 30.5639 9.85316 29.9535 10.3033 29.5034C10.7534 29.0533 11.3638 28.8004 12.0004 28.8004C12.6369 28.8004 13.2474 29.0533 13.6975 29.5034C14.1476 29.9535 14.4004 30.5639 14.4004 31.2005V31.2005ZM31.201 31.2005C31.201 31.837 30.9481 32.4475 30.498 32.8976C30.0479 33.3477 29.4374 33.6006 28.8009 33.6006C28.1644 33.6006 27.5539 33.3477 27.1038 32.8976C26.6537 32.4475 26.4008 31.837 26.4008 31.2005C26.4008 30.5639 26.6537 29.9535 27.1038 29.5034C27.5539 29.0533 28.1644 28.8004 28.8009 28.8004C29.4374 28.8004 30.0479 29.0533 30.498 29.5034C30.9481 29.9535 31.201 30.5639 31.201 31.2005V31.2005Z" fill="#F5B216"/>
</svg>
