<svg width="86" height="87" viewBox="0 0 86 87" fill="none" xmlns="http://www.w3.org/2000/svg">
<path d="M37.2691 34.4011C36.5088 34.4011 35.7796 34.7032 35.242 35.2408C34.7044 35.7784 34.4023 36.5076 34.4023 37.2679C34.4023 38.0282 34.7044 38.7574 35.242 39.295C35.7796 39.8326 36.5088 40.1346 37.2691 40.1346H60.2031C60.9634 40.1346 61.6926 39.8326 62.2302 39.295C62.7679 38.7574 63.0699 38.0282 63.0699 37.2679C63.0699 36.5076 62.7679 35.7784 62.2302 35.2408C61.6926 34.7032 60.9634 34.4011 60.2031 34.4011H37.2691Z" fill="none"/>
<path d="M2.86676 0C2.10644 0 1.37727 0.302032 0.839653 0.839653C0.302032 1.37727 0 2.10644 0 2.86676C0 3.62707 0.302032 4.35624 0.839653 4.89386C1.37727 5.43148 2.10644 5.73351 2.86676 5.73351H9.23095L11.5301 14.9473L20.1189 60.7293C20.2419 61.3863 20.5905 61.9796 21.1045 62.4067C21.6186 62.8339 22.2657 63.068 22.934 63.0686H28.6676C25.6263 63.0686 22.7096 64.2767 20.5591 66.4272C18.4087 68.5777 17.2005 71.4944 17.2005 74.5356C17.2005 77.5769 18.4087 80.4936 20.5591 82.644C22.7096 84.7945 25.6263 86.0027 28.6676 86.0027C31.7088 86.0027 34.6255 84.7945 36.776 82.644C38.9264 80.4936 40.1346 77.5769 40.1346 74.5356C40.1346 71.4944 38.9264 68.5777 36.776 66.4272C34.6255 64.2767 31.7088 63.0686 28.6676 63.0686H68.8021C65.7609 63.0686 62.8442 64.2767 60.6937 66.4272C58.5432 68.5777 57.3351 71.4944 57.3351 74.5356C57.3351 77.5769 58.5432 80.4936 60.6937 82.644C62.8442 84.7945 65.7609 86.0027 68.8021 86.0027C71.8434 86.0027 74.76 84.7945 76.9105 82.644C79.061 80.4936 80.2691 77.5769 80.2691 74.5356C80.2691 71.4944 79.061 68.5777 76.9105 66.4272C74.76 64.2767 71.8434 63.0686 68.8021 63.0686H74.5356C75.204 63.068 75.8511 62.8339 76.3651 62.4067C76.8792 61.9796 77.2278 61.3863 77.3508 60.7293L85.9511 14.8613C86.0285 14.4475 86.0139 14.0218 85.9083 13.6143C85.8026 13.2069 85.6085 12.8277 85.3398 12.5037C85.0711 12.1797 84.7343 11.9188 84.3534 11.7397C83.9725 11.5605 83.5568 11.4674 83.1359 11.467H16.5698L14.2478 2.173C14.093 1.55254 13.7353 1.00164 13.2314 0.607894C12.7275 0.214151 12.1065 0.000176658 11.467 0H2.86676ZM25.3134 57.3351L17.7853 17.2005H79.6843L72.1562 57.3351H25.3134V57.3351ZM34.4011 74.5356C34.4011 76.0563 33.797 77.5146 32.7218 78.5898C31.6465 79.6651 30.1882 80.2691 28.6676 80.2691C27.1469 80.2691 25.6886 79.6651 24.6133 78.5898C23.5381 77.5146 22.934 76.0563 22.934 74.5356C22.934 73.015 23.5381 71.5567 24.6133 70.4814C25.6886 69.4062 27.1469 68.8021 28.6676 68.8021C30.1882 68.8021 31.6465 69.4062 32.7218 70.4814C33.797 71.5567 34.4011 73.015 34.4011 74.5356V74.5356ZM74.5356 74.5356C74.5356 76.0563 73.9316 77.5146 72.8563 78.5898C71.7811 79.6651 70.3227 80.2691 68.8021 80.2691C67.2815 80.2691 65.8232 79.6651 64.7479 78.5898C63.6727 77.5146 63.0686 76.0563 63.0686 74.5356C63.0686 73.015 63.6727 71.5567 64.7479 70.4814C65.8232 69.4062 67.2815 68.8021 68.8021 68.8021C70.3227 68.8021 71.7811 69.4062 72.8563 70.4814C73.9316 71.5567 74.5356 73.015 74.5356 74.5356V74.5356Z" fill="none"/>
</svg>
