<svg width="40" height="41" viewBox="0 0 40 41" fill="none" xmlns="http://www.w3.org/2000/svg">
<path d="M29.9994 31.3334C31.3827 31.3334 32.4994 30.2167 32.4994 28.8334C32.4994 27.4501 31.3827 26.3334 29.9994 26.3334C28.616 26.3334 27.4994 27.4501 27.4994 28.8334C27.4994 30.2167 28.616 31.3334 29.9994 31.3334ZM32.4994 16.3334H28.3327V20.5001H35.766L32.4994 16.3334ZM9.99935 31.3334C11.3827 31.3334 12.4993 30.2167 12.4993 28.8334C12.4993 27.4501 11.3827 26.3334 9.99935 26.3334C8.61602 26.3334 7.49935 27.4501 7.49935 28.8334C7.49935 30.2167 8.61602 31.3334 9.99935 31.3334ZM33.3327 13.8334L38.3327 20.5001V28.8334H34.9994C34.9994 31.6001 32.766 33.8334 29.9994 33.8334C27.2327 33.8334 24.9994 31.6001 24.9994 28.8334H14.9993C14.9993 31.6001 12.766 33.8334 9.99935 33.8334C7.23268 33.8334 4.99935 31.6001 4.99935 28.8334H1.66602V10.5001C1.66602 8.65008 3.14935 7.16675 4.99935 7.16675H28.3327V13.8334H33.3327ZM4.99935 10.5001V25.5001H6.26602C7.18268 24.4834 8.51602 23.8334 9.99935 23.8334C11.4827 23.8334 12.816 24.4834 13.7327 25.5001H24.9994V10.5001H4.99935ZM16.666 12.1667L22.4993 18.0001L16.666 23.8334V19.6667H8.33268V16.3334H16.666V12.1667Z" fill="#F5B216"/>
</svg>
